<svg width="167" height="79" viewBox="0 0 167 79" fill="none" xmlns="http://www.w3.org/2000/svg">
<path fill-rule="evenodd" clip-rule="evenodd" d="M0 16.3341C0 7.31304 7.31304 0 16.3341 0H59.8918C68.9129 0 76.226 7.31304 76.226 16.3341V59.8918C76.226 68.9129 68.9129 76.226 59.8918 76.226H16.3341C7.31304 76.226 0 68.9129 0 59.8918V16.3341ZM45.3225 32.9625C45.3225 40.9271 38.866 47.3837 30.9014 47.3837C22.9368 47.3837 16.4803 40.9271 16.4803 32.9625C16.4803 24.998 22.9368 18.5414 30.9014 18.5414C38.866 18.5414 45.3225 24.998 45.3225 32.9625ZM51.5044 59.7444C56.0556 59.7444 59.745 56.0549 59.745 51.5037C59.745 46.9526 56.0556 43.2631 51.5044 43.2631C46.9532 43.2631 43.2637 46.9526 43.2637 51.5037C43.2637 56.0549 46.9532 59.7444 51.5044 59.7444Z" fill="white"/>
<path fill-rule="evenodd" clip-rule="evenodd" d="M116.523 14.8583C116.523 18.0786 115.897 20.7951 114.645 23.0078C113.393 25.2111 111.702 26.8825 109.574 28.0218C107.446 29.1517 105.074 29.7167 102.456 29.7167C99.8196 29.7167 97.4374 29.147 95.3094 28.0077C93.1908 26.8589 91.5053 25.1829 90.253 22.9796C89.0101 20.7668 88.3887 18.0597 88.3887 14.8583C88.3887 11.6381 89.0101 8.9263 90.253 6.72297C91.5053 4.51023 93.1908 2.8389 95.3094 1.70899C97.4374 0.569663 99.8196 0 102.456 0C105.074 0 107.446 0.569663 109.574 1.70899C111.702 2.8389 113.393 4.51023 114.645 6.72297C115.897 8.9263 116.523 11.6381 116.523 14.8583ZM108.445 14.8583C108.445 13.1258 108.214 11.6663 107.753 10.4799C107.301 9.2841 106.627 8.38017 105.733 7.76814C104.848 7.14668 103.755 6.83596 102.456 6.83596C101.157 6.83596 100.06 7.14668 99.1652 7.76814C98.2801 8.38017 97.6069 9.2841 97.1455 10.4799C96.6935 11.6663 96.4675 13.1258 96.4675 14.8583C96.4675 16.5909 96.6935 18.055 97.1455 19.2509C97.6069 20.4373 98.2801 21.3412 99.1652 21.9626C100.06 22.5747 101.157 22.8807 102.456 22.8807C103.755 22.8807 104.848 22.5747 105.733 21.9626C106.627 21.3412 107.301 20.4373 107.753 19.2509C108.214 18.055 108.445 16.5909 108.445 14.8583ZM128.066 17.1181V29.3212H120.27V7.6269H127.671V11.7511H127.897C128.367 10.3763 129.196 9.29823 130.383 8.5167C131.578 7.73518 132.972 7.34442 134.563 7.34442C136.098 7.34442 137.43 7.69752 138.56 8.40371C139.7 9.10049 140.58 10.0609 141.201 11.285C141.832 12.5091 142.143 13.9073 142.134 15.4798V29.3212H134.337V17.1181C134.347 16.0447 134.074 15.202 133.518 14.59C132.972 13.9779 132.209 13.6719 131.23 13.6719C130.59 13.6719 130.029 13.8132 129.549 14.0956C129.078 14.3687 128.716 14.7642 128.462 15.282C128.207 15.7905 128.076 16.4025 128.066 17.1181ZM150.389 28.389C152.065 29.2741 154.061 29.7167 156.378 29.7167C158.383 29.7167 160.134 29.4153 161.632 28.8127C163.138 28.2007 164.348 27.3438 165.261 26.2422C166.175 25.1311 166.754 23.8223 166.999 22.3157H159.88C159.73 22.7206 159.494 23.069 159.174 23.3609C158.854 23.6434 158.468 23.8599 158.016 24.0106C157.573 24.1613 157.084 24.2366 156.547 24.2366C155.775 24.2366 155.116 24.0812 154.57 23.7705C154.024 23.4598 153.605 23.0313 153.313 22.4852C153.021 21.9391 152.875 21.3176 152.875 20.6209V20.2819H166.999V18.474C166.999 16.7509 166.744 15.202 166.236 13.8273C165.728 12.4526 165.002 11.285 164.061 10.3246C163.119 9.35472 161.985 8.61557 160.657 8.10711C159.329 7.59865 157.846 7.34442 156.208 7.34442C153.967 7.34442 152.023 7.81051 150.375 8.74269C148.727 9.67486 147.451 10.979 146.547 12.655C145.643 14.331 145.191 16.2895 145.191 18.5305C145.191 20.8657 145.639 22.8713 146.533 24.5473C147.437 26.2139 148.722 27.4945 150.389 28.389ZM152.875 15.9882C152.894 15.3574 153.058 14.8065 153.369 14.3357C153.689 13.8649 154.113 13.4977 154.64 13.2341C155.168 12.961 155.747 12.8245 156.378 12.8245C157.027 12.8245 157.606 12.961 158.115 13.2341C158.633 13.4977 159.042 13.8697 159.344 14.3499C159.654 14.8207 159.814 15.3668 159.824 15.9882H152.875Z" fill="white"/>
<path fill-rule="evenodd" clip-rule="evenodd" d="M105.507 41.3567H113.36V59.8872C113.36 62.0906 112.832 63.9973 111.778 65.6074C110.733 67.2081 109.273 68.4463 107.399 69.322C105.526 70.1882 103.351 70.6214 100.874 70.6214C98.379 70.6214 96.1945 70.1882 94.3207 69.322C92.4469 68.4463 90.9875 67.2081 89.9423 65.6074C88.9065 63.9973 88.3887 62.0906 88.3887 59.8872V41.3567H96.2415V59.2093C96.2415 60.1038 96.4393 60.9042 96.8348 61.6103C97.2302 62.3071 97.7763 62.8532 98.4731 63.2487C99.1793 63.6442 99.9797 63.8419 100.874 63.8419C101.778 63.8419 102.578 63.6442 103.275 63.2487C103.972 62.8532 104.518 62.3071 104.914 61.6103C105.309 60.9042 105.507 60.1038 105.507 59.2093V41.3567ZM117.205 48.5881V78.4178H125.001V66.7232H125.114C125.416 67.4576 125.844 68.1167 126.4 68.7005C126.965 69.2749 127.642 69.7316 128.433 70.0705C129.234 70.4001 130.142 70.5649 131.159 70.5649C132.704 70.5649 134.121 70.16 135.411 69.3502C136.71 68.5405 137.746 67.3117 138.518 65.6639C139.299 64.0161 139.69 61.9399 139.69 59.4353C139.69 56.8176 139.281 54.6896 138.461 53.0513C137.652 51.4129 136.597 50.2124 135.298 49.4497C134.008 48.687 132.647 48.3056 131.216 48.3056C130.142 48.3056 129.201 48.494 128.391 48.8706C127.581 49.2378 126.903 49.7322 126.357 50.3536C125.811 50.9656 125.397 51.6389 125.114 52.3733H124.945V48.5881H117.205ZM125.241 62.1753C124.968 61.4032 124.832 60.4898 124.832 59.4353C124.832 58.3618 124.968 57.4438 125.241 56.6811C125.524 55.909 125.919 55.3205 126.428 54.9156C126.946 54.5013 127.562 54.2942 128.278 54.2942C128.994 54.2942 129.601 54.5013 130.1 54.9156C130.608 55.3205 130.995 55.909 131.258 56.6811C131.531 57.4438 131.668 58.3618 131.668 59.4353C131.668 60.5087 131.531 61.4314 131.258 62.2035C130.995 62.9662 130.608 63.5547 130.1 63.969C129.601 64.3739 128.994 64.5764 128.278 64.5764C127.562 64.5764 126.946 64.3692 126.428 63.9549C125.919 63.5312 125.524 62.938 125.241 62.1753Z" fill="white"/>
</svg>
