<svg width="50" height="34" viewBox="0 0 50 34" fill="none" xmlns="http://www.w3.org/2000/svg">
<path d="M16.1917 2.28175C16.1917 3.54192 15.2031 4.56349 13.9835 4.56349C12.764 4.56349 11.7754 3.54192 11.7754 2.28175C11.7754 1.02157 12.764 0 13.9835 0C15.2031 0 16.1917 1.02157 16.1917 2.28175Z" fill="white"/>
<path d="M37.9795 2.28175C37.9795 3.54192 36.9579 4.56349 35.6978 4.56349C34.4376 4.56349 33.416 3.54192 33.416 2.28175C33.416 1.02157 34.4376 0 35.6978 0C36.9579 0 37.9795 1.02157 37.9795 2.28175Z" fill="white"/>
<path fill-rule="evenodd" clip-rule="evenodd" d="M6.37963e-06 16.6959C6.37963e-06 16.6959 -0.000330985 16.6955 0.674233 16.2047C1.3488 15.7139 1.34873 15.7138 1.34873 15.7138L1.3501 15.7157L1.3556 15.7231L1.3791 15.7548C1.40027 15.7833 1.43237 15.8263 1.47503 15.8828C1.56036 15.9958 1.68791 16.163 1.85468 16.3769C2.18825 16.8047 2.67844 17.4189 3.30121 18.1593C4.5477 19.6411 6.32069 21.623 8.42835 23.6269C10.5382 25.6329 12.9682 27.6461 15.5273 29.2022C18.0925 30.762 20.7379 31.8321 23.2887 32.0168C26.0334 32.2155 28.9732 31.4107 31.8815 30.0284C34.7835 28.649 37.5972 26.7219 40.0687 24.7506C42.5374 22.7815 44.6461 20.7835 46.1382 19.2767C46.8837 18.5238 47.4739 17.8949 47.8767 17.4555C48.0781 17.2358 48.2325 17.0635 48.336 16.9469C48.3878 16.8886 48.4268 16.8441 48.4526 16.8147L48.4812 16.7818L48.488 16.774L48.4894 16.7723C48.4894 16.7723 48.4896 16.7721 49.1234 17.3142C49.7572 17.8562 49.7568 17.8566 49.7568 17.8566L49.7561 17.8575L49.7537 17.8603L49.745 17.8702L49.7125 17.9076C49.6841 17.9401 49.6423 17.9876 49.5878 18.049C49.4787 18.172 49.3182 18.3509 49.1105 18.5776C48.695 19.0309 48.09 19.6754 47.3276 20.4453C45.804 21.984 43.6463 24.029 41.1129 26.0497C38.5823 28.0681 35.658 30.0773 32.601 31.5304C29.5501 32.9805 26.3096 33.9041 23.1676 33.6766C20.2522 33.4655 17.3454 32.2574 14.6568 30.6226C11.9622 28.9842 9.43691 26.8863 7.27486 24.8308C5.11057 22.7731 3.29488 20.7429 2.02066 19.2281C1.38309 18.4701 0.879921 17.8398 0.535234 17.3977C0.362865 17.1766 0.230053 17.0025 0.139805 16.883C0.094679 16.8232 0.0601882 16.7771 0.0367086 16.7455L0.00979195 16.7092L0.00261383 16.6995L6.37963e-06 16.6959Z" fill="white"/>
</svg>
